<mxfile host="app.diagrams.net" modified="2024-05-16T02:53:03.937Z" agent="Mozilla/5.0 (Windows NT 10.0; Win64; x64) AppleWebKit/537.36 (KHTML, like Gecko) Chrome/124.0.0.0 Safari/537.36 Edg/124.0.0.0" etag="lG_w8dH_NRsWjh9GcnYF" version="24.4.2" type="device">
  <diagram id="C5RBs43oDa-KdzZeNtuy" name="Page-1">
    <mxGraphModel dx="1386" dy="796" grid="1" gridSize="10" guides="1" tooltips="1" connect="1" arrows="1" fold="1" page="1" pageScale="1" pageWidth="827" pageHeight="1169" math="0" shadow="0">
      <root>
        <mxCell id="WIyWlLk6GJQsqaUBKTNV-0" />
        <mxCell id="WIyWlLk6GJQsqaUBKTNV-1" parent="WIyWlLk6GJQsqaUBKTNV-0" />
        <mxCell id="jDKfsMKymISgEdj8rTEX-19" style="edgeStyle=orthogonalEdgeStyle;rounded=0;orthogonalLoop=1;jettySize=auto;html=1;exitX=0.5;exitY=1;exitDx=0;exitDy=0;entryX=0.5;entryY=0;entryDx=0;entryDy=0;" edge="1" parent="WIyWlLk6GJQsqaUBKTNV-1" source="jDKfsMKymISgEdj8rTEX-0" target="jDKfsMKymISgEdj8rTEX-1">
          <mxGeometry relative="1" as="geometry" />
        </mxCell>
        <mxCell id="jDKfsMKymISgEdj8rTEX-0" value="Show_GameResult()&lt;br&gt;開始" style="ellipse;whiteSpace=wrap;html=1;" vertex="1" parent="WIyWlLk6GJQsqaUBKTNV-1">
          <mxGeometry x="280" y="40" width="120" height="40" as="geometry" />
        </mxCell>
        <mxCell id="jDKfsMKymISgEdj8rTEX-9" style="edgeStyle=orthogonalEdgeStyle;rounded=0;orthogonalLoop=1;jettySize=auto;html=1;exitX=0.5;exitY=1;exitDx=0;exitDy=0;entryX=0.5;entryY=0;entryDx=0;entryDy=0;" edge="1" parent="WIyWlLk6GJQsqaUBKTNV-1" source="jDKfsMKymISgEdj8rTEX-1" target="jDKfsMKymISgEdj8rTEX-8">
          <mxGeometry relative="1" as="geometry" />
        </mxCell>
        <mxCell id="jDKfsMKymISgEdj8rTEX-1" value="引数がリザルト表示命令1か？" style="rhombus;whiteSpace=wrap;html=1;" vertex="1" parent="WIyWlLk6GJQsqaUBKTNV-1">
          <mxGeometry x="300" y="120" width="80" height="80" as="geometry" />
        </mxCell>
        <mxCell id="jDKfsMKymISgEdj8rTEX-16" style="edgeStyle=orthogonalEdgeStyle;rounded=0;orthogonalLoop=1;jettySize=auto;html=1;exitX=0.5;exitY=1;exitDx=0;exitDy=0;entryX=0.5;entryY=0;entryDx=0;entryDy=0;" edge="1" parent="WIyWlLk6GJQsqaUBKTNV-1" source="jDKfsMKymISgEdj8rTEX-2" target="jDKfsMKymISgEdj8rTEX-3">
          <mxGeometry relative="1" as="geometry" />
        </mxCell>
        <mxCell id="jDKfsMKymISgEdj8rTEX-2" value="Show_Headder()" style="shape=process;whiteSpace=wrap;html=1;backgroundOutline=1;" vertex="1" parent="WIyWlLk6GJQsqaUBKTNV-1">
          <mxGeometry x="280" y="440" width="120" height="40" as="geometry" />
        </mxCell>
        <mxCell id="jDKfsMKymISgEdj8rTEX-23" style="edgeStyle=orthogonalEdgeStyle;rounded=0;orthogonalLoop=1;jettySize=auto;html=1;exitX=0.5;exitY=1;exitDx=0;exitDy=0;entryX=0.5;entryY=0;entryDx=0;entryDy=0;" edge="1" parent="WIyWlLk6GJQsqaUBKTNV-1" source="jDKfsMKymISgEdj8rTEX-3" target="jDKfsMKymISgEdj8rTEX-17">
          <mxGeometry relative="1" as="geometry" />
        </mxCell>
        <mxCell id="jDKfsMKymISgEdj8rTEX-3" value="終了時の盤面と&lt;br&gt;メッセージを表示" style="rounded=0;whiteSpace=wrap;html=1;" vertex="1" parent="WIyWlLk6GJQsqaUBKTNV-1">
          <mxGeometry x="280" y="520" width="120" height="40" as="geometry" />
        </mxCell>
        <mxCell id="jDKfsMKymISgEdj8rTEX-13" style="edgeStyle=orthogonalEdgeStyle;rounded=0;orthogonalLoop=1;jettySize=auto;html=1;exitX=0.5;exitY=1;exitDx=0;exitDy=0;entryX=0.5;entryY=0;entryDx=0;entryDy=0;" edge="1" parent="WIyWlLk6GJQsqaUBKTNV-1" source="jDKfsMKymISgEdj8rTEX-4" target="jDKfsMKymISgEdj8rTEX-2">
          <mxGeometry relative="1" as="geometry" />
        </mxCell>
        <mxCell id="jDKfsMKymISgEdj8rTEX-4" value="メッセージを&lt;div&gt;引き分けメッセージにする&lt;/div&gt;" style="rounded=0;whiteSpace=wrap;html=1;" vertex="1" parent="WIyWlLk6GJQsqaUBKTNV-1">
          <mxGeometry x="120" y="360" width="120" height="40" as="geometry" />
        </mxCell>
        <mxCell id="jDKfsMKymISgEdj8rTEX-14" style="edgeStyle=orthogonalEdgeStyle;rounded=0;orthogonalLoop=1;jettySize=auto;html=1;exitX=0.5;exitY=1;exitDx=0;exitDy=0;" edge="1" parent="WIyWlLk6GJQsqaUBKTNV-1" source="jDKfsMKymISgEdj8rTEX-5">
          <mxGeometry relative="1" as="geometry">
            <mxPoint x="340" y="440" as="targetPoint" />
          </mxGeometry>
        </mxCell>
        <mxCell id="jDKfsMKymISgEdj8rTEX-5" value="&lt;div&gt;メッセージを&lt;/div&gt;プレイヤー1の勝利メッセージにする" style="rounded=0;whiteSpace=wrap;html=1;" vertex="1" parent="WIyWlLk6GJQsqaUBKTNV-1">
          <mxGeometry x="280" y="360" width="120" height="40" as="geometry" />
        </mxCell>
        <mxCell id="jDKfsMKymISgEdj8rTEX-15" style="edgeStyle=orthogonalEdgeStyle;rounded=0;orthogonalLoop=1;jettySize=auto;html=1;exitX=0.5;exitY=1;exitDx=0;exitDy=0;entryX=0.5;entryY=0;entryDx=0;entryDy=0;" edge="1" parent="WIyWlLk6GJQsqaUBKTNV-1" source="jDKfsMKymISgEdj8rTEX-6" target="jDKfsMKymISgEdj8rTEX-2">
          <mxGeometry relative="1" as="geometry" />
        </mxCell>
        <mxCell id="jDKfsMKymISgEdj8rTEX-6" value="&lt;div&gt;メッセージを&lt;/div&gt;プレイヤー2の勝利メッセージにする" style="rounded=0;whiteSpace=wrap;html=1;" vertex="1" parent="WIyWlLk6GJQsqaUBKTNV-1">
          <mxGeometry x="440" y="360" width="120" height="40" as="geometry" />
        </mxCell>
        <mxCell id="jDKfsMKymISgEdj8rTEX-11" style="edgeStyle=orthogonalEdgeStyle;rounded=0;orthogonalLoop=1;jettySize=auto;html=1;exitX=0.5;exitY=1;exitDx=0;exitDy=0;entryX=0.5;entryY=0;entryDx=0;entryDy=0;" edge="1" parent="WIyWlLk6GJQsqaUBKTNV-1" source="jDKfsMKymISgEdj8rTEX-8" target="jDKfsMKymISgEdj8rTEX-5">
          <mxGeometry relative="1" as="geometry" />
        </mxCell>
        <mxCell id="jDKfsMKymISgEdj8rTEX-12" style="edgeStyle=orthogonalEdgeStyle;rounded=0;orthogonalLoop=1;jettySize=auto;html=1;exitX=1;exitY=0.5;exitDx=0;exitDy=0;entryX=0.5;entryY=0;entryDx=0;entryDy=0;" edge="1" parent="WIyWlLk6GJQsqaUBKTNV-1" source="jDKfsMKymISgEdj8rTEX-8" target="jDKfsMKymISgEdj8rTEX-6">
          <mxGeometry relative="1" as="geometry" />
        </mxCell>
        <mxCell id="jDKfsMKymISgEdj8rTEX-8" value="引数がリザルト表示命令2か？" style="rhombus;whiteSpace=wrap;html=1;" vertex="1" parent="WIyWlLk6GJQsqaUBKTNV-1">
          <mxGeometry x="300" y="240" width="80" height="80" as="geometry" />
        </mxCell>
        <mxCell id="jDKfsMKymISgEdj8rTEX-10" style="edgeStyle=orthogonalEdgeStyle;rounded=0;orthogonalLoop=1;jettySize=auto;html=1;exitX=0;exitY=0.5;exitDx=0;exitDy=0;entryX=0.437;entryY=-0.075;entryDx=0;entryDy=0;entryPerimeter=0;" edge="1" parent="WIyWlLk6GJQsqaUBKTNV-1" source="jDKfsMKymISgEdj8rTEX-1" target="jDKfsMKymISgEdj8rTEX-4">
          <mxGeometry relative="1" as="geometry">
            <Array as="points">
              <mxPoint x="172" y="160" />
            </Array>
          </mxGeometry>
        </mxCell>
        <mxCell id="jDKfsMKymISgEdj8rTEX-35" style="edgeStyle=orthogonalEdgeStyle;rounded=0;orthogonalLoop=1;jettySize=auto;html=1;exitX=0.5;exitY=1;exitDx=0;exitDy=0;entryX=0.5;entryY=0;entryDx=0;entryDy=0;" edge="1" parent="WIyWlLk6GJQsqaUBKTNV-1" source="jDKfsMKymISgEdj8rTEX-17" target="jDKfsMKymISgEdj8rTEX-34">
          <mxGeometry relative="1" as="geometry" />
        </mxCell>
        <mxCell id="jDKfsMKymISgEdj8rTEX-17" value="Get_Input()" style="rounded=0;whiteSpace=wrap;html=1;" vertex="1" parent="WIyWlLk6GJQsqaUBKTNV-1">
          <mxGeometry x="280" y="600" width="120" height="40" as="geometry" />
        </mxCell>
        <mxCell id="jDKfsMKymISgEdj8rTEX-21" style="edgeStyle=orthogonalEdgeStyle;rounded=0;orthogonalLoop=1;jettySize=auto;html=1;exitX=0.5;exitY=1;exitDx=0;exitDy=0;entryX=0.5;entryY=0;entryDx=0;entryDy=0;" edge="1" parent="WIyWlLk6GJQsqaUBKTNV-1" source="jDKfsMKymISgEdj8rTEX-18" target="jDKfsMKymISgEdj8rTEX-20">
          <mxGeometry relative="1" as="geometry" />
        </mxCell>
        <mxCell id="jDKfsMKymISgEdj8rTEX-26" style="edgeStyle=orthogonalEdgeStyle;rounded=0;orthogonalLoop=1;jettySize=auto;html=1;exitX=1;exitY=0.5;exitDx=0;exitDy=0;" edge="1" parent="WIyWlLk6GJQsqaUBKTNV-1" source="jDKfsMKymISgEdj8rTEX-18">
          <mxGeometry relative="1" as="geometry">
            <mxPoint x="340" y="440" as="targetPoint" />
            <Array as="points">
              <mxPoint x="440" y="800" />
              <mxPoint x="440" y="420" />
              <mxPoint x="341" y="420" />
              <mxPoint x="341" y="440" />
            </Array>
          </mxGeometry>
        </mxCell>
        <mxCell id="jDKfsMKymISgEdj8rTEX-18" value="Get_Input()の返り値がEnterか？" style="rhombus;whiteSpace=wrap;html=1;" vertex="1" parent="WIyWlLk6GJQsqaUBKTNV-1">
          <mxGeometry x="300" y="760" width="80" height="80" as="geometry" />
        </mxCell>
        <mxCell id="jDKfsMKymISgEdj8rTEX-20" value="Show_GameResult()&lt;br&gt;終了" style="ellipse;whiteSpace=wrap;html=1;" vertex="1" parent="WIyWlLk6GJQsqaUBKTNV-1">
          <mxGeometry x="280" y="880" width="120" height="40" as="geometry" />
        </mxCell>
        <mxCell id="jDKfsMKymISgEdj8rTEX-27" value="Yes" style="text;html=1;align=center;verticalAlign=middle;whiteSpace=wrap;rounded=0;" vertex="1" parent="WIyWlLk6GJQsqaUBKTNV-1">
          <mxGeometry x="240" y="130" width="60" height="30" as="geometry" />
        </mxCell>
        <mxCell id="jDKfsMKymISgEdj8rTEX-28" value="Yes" style="text;html=1;align=center;verticalAlign=middle;whiteSpace=wrap;rounded=0;" vertex="1" parent="WIyWlLk6GJQsqaUBKTNV-1">
          <mxGeometry x="280" y="320" width="60" height="30" as="geometry" />
        </mxCell>
        <mxCell id="jDKfsMKymISgEdj8rTEX-29" value="Yes" style="text;html=1;align=center;verticalAlign=middle;whiteSpace=wrap;rounded=0;" vertex="1" parent="WIyWlLk6GJQsqaUBKTNV-1">
          <mxGeometry x="280" y="840" width="60" height="30" as="geometry" />
        </mxCell>
        <mxCell id="jDKfsMKymISgEdj8rTEX-30" value="No" style="text;html=1;align=center;verticalAlign=middle;whiteSpace=wrap;rounded=0;" vertex="1" parent="WIyWlLk6GJQsqaUBKTNV-1">
          <mxGeometry x="380" y="770" width="60" height="30" as="geometry" />
        </mxCell>
        <mxCell id="jDKfsMKymISgEdj8rTEX-31" value="No" style="text;html=1;align=center;verticalAlign=middle;whiteSpace=wrap;rounded=0;" vertex="1" parent="WIyWlLk6GJQsqaUBKTNV-1">
          <mxGeometry x="380" y="250" width="60" height="30" as="geometry" />
        </mxCell>
        <mxCell id="jDKfsMKymISgEdj8rTEX-33" value="No" style="text;html=1;align=center;verticalAlign=middle;whiteSpace=wrap;rounded=0;" vertex="1" parent="WIyWlLk6GJQsqaUBKTNV-1">
          <mxGeometry x="350" y="200" width="60" height="30" as="geometry" />
        </mxCell>
        <mxCell id="jDKfsMKymISgEdj8rTEX-36" style="edgeStyle=orthogonalEdgeStyle;rounded=0;orthogonalLoop=1;jettySize=auto;html=1;exitX=0.5;exitY=1;exitDx=0;exitDy=0;entryX=0.5;entryY=0;entryDx=0;entryDy=0;" edge="1" parent="WIyWlLk6GJQsqaUBKTNV-1" source="jDKfsMKymISgEdj8rTEX-34" target="jDKfsMKymISgEdj8rTEX-18">
          <mxGeometry relative="1" as="geometry" />
        </mxCell>
        <mxCell id="jDKfsMKymISgEdj8rTEX-34" value="ターミナルの出力&lt;div&gt;を消す&lt;/div&gt;" style="rounded=0;whiteSpace=wrap;html=1;" vertex="1" parent="WIyWlLk6GJQsqaUBKTNV-1">
          <mxGeometry x="280" y="680" width="120" height="40" as="geometry" />
        </mxCell>
      </root>
    </mxGraphModel>
  </diagram>
</mxfile>
